<svg width="512" height="512" viewBox="0 0 512 512" xmlns="http://www.w3.org/2000/svg">
  <defs>
    <linearGradient id="grad1" x1="0%" y1="0%" x2="100%" y2="100%">
      <stop offset="0%" style="stop-color:#ff9fdc;stop-opacity:1" />
      <stop offset="100%" style="stop-color:#c7d2fe;stop-opacity:1" />
    </linearGradient>
    
    <filter id="blushBlur" x="-50%" y="-50%" width="200%" height="200%">
      <feGaussianBlur in="SourceGraphic" stdDeviation="6" />
    </filter>

    <filter id="stickerShadow" x="-20%" y="-20%" width="140%" height="140%">
      <feDropShadow dx="0" dy="4" stdDeviation="4" flood-color="#6b5b95" flood-opacity="0.25"/>
    </filter>
  </defs>
  
  <!-- Background Squircle -->
  <rect x="55" y="55" width="402" height="402" rx="88" ry="88" fill="url(#grad1)" stroke="#cceeff" stroke-width="14" />
  
  <!-- Face Group -->
  <g transform="translate(256, 256) scale(0.84) translate(-256, -256)">
      
      <g filter="url(#stickerShadow)">
          <!-- CatBunny Ears -->
          <!-- Fill changed to #fff5f9 (Goldilocks Pink) -->
          
          <path d="M140 160 Q100 75 125 60 Q150 45 210 120" 
                fill="#fff5f9" stroke="#cceeff" stroke-width="10" stroke-linecap="butt" stroke-linejoin="round"/>
          
          <path d="M372 160 Q412 75 387 60 Q362 45 302 120" 
                fill="#fff5f9" stroke="#cceeff" stroke-width="10" stroke-linecap="butt" stroke-linejoin="round"/>

          <!-- Whiskers (Purple) -->
          <line x1="100" y1="280" x2="60" y2="265" stroke="#6b5b95" stroke-width="12" stroke-linecap="round" />
          <line x1="100" y1="300" x2="60" y2="315" stroke="#6b5b95" stroke-width="12" stroke-linecap="round" />
          
          <line x1="412" y1="280" x2="452" y2="265" stroke="#6b5b95" stroke-width="12" stroke-linecap="round" />
          <line x1="412" y1="300" x2="452" y2="315" stroke="#6b5b95" stroke-width="12" stroke-linecap="round" />
      </g>

      <!-- Eyes -->
      <circle cx="180" cy="260" r="24" fill="#6b5b95" />
      <circle cx="332" cy="260" r="24" fill="#6b5b95" />
      
      <!-- Sparkles -->
      <circle cx="172" cy="252" r="8" fill="#fff" />
      <circle cx="324" cy="252" r="8" fill="#fff" />
      
      <!-- Mouth -->
      <path d="M220 310 Q256 340 292 310" fill="none" stroke="#6b5b95" stroke-width="16" stroke-linecap="round" />
      
      <!-- Cheeks -->
      <ellipse cx="150" cy="310" rx="30" ry="16" fill="#ff9ec6" opacity="0.8" filter="url(#blushBlur)" />
      <ellipse cx="362" cy="310" rx="30" ry="16" fill="#ff9ec6" opacity="0.8" filter="url(#blushBlur)" />

  </g>

</svg>