<svg width="512" height="512" viewBox="0 0 512 512" xmlns="http://www.w3.org/2000/svg">
  <defs>
    <linearGradient id="grad1" x1="0%" y1="0%" x2="100%" y2="100%">
      <stop offset="0%" style="stop-color:#ff9fdc;stop-opacity:1" />
      <stop offset="100%" style="stop-color:#c7d2fe;stop-opacity:1" />
    </linearGradient>
    <filter id="glow">
      <feGaussianBlur stdDeviation="10" result="coloredBlur"/>
      <feMerge>
        <feMergeNode in="coloredBlur"/>
        <feMergeNode in="SourceGraphic"/>
      </feMerge>
    </filter>
  </defs>
  
  <!-- Background Squircle -->
  <rect x="32" y="32" width="448" height="448" rx="128" ry="128" fill="url(#grad1)" stroke="#fff" stroke-width="16" />
  
  <!-- CatBunny Ears (Left) -->
  <path d="M140 140 L110 40 L200 120" fill="#fff" stroke="#fff" stroke-width="12" stroke-linecap="round" stroke-linejoin="round"/>
  <!-- CatBunny Ears (Right) -->
  <path d="M372 140 L402 40 L312 120" fill="#fff" stroke="#fff" stroke-width="12" stroke-linecap="round" stroke-linejoin="round"/>

  <!-- Face Container (Invisible, just for spacing) -->
  
  <!-- Eyes -->
  <circle cx="180" cy="260" r="24" fill="#6b5b95" />
  <circle cx="332" cy="260" r="24" fill="#6b5b95" />
  
  <!-- Sparkles in eyes -->
  <circle cx="172" cy="252" r="8" fill="#fff" />
  <circle cx="324" cy="252" r="8" fill="#fff" />
  
  <!-- Mouth (W shape) -->
  <path d="M220 310 Q256 340 292 310" fill="none" stroke="#6b5b95" stroke-width="16" stroke-linecap="round" />
  
  <!-- Cheeks -->
  <ellipse cx="150" cy="310" rx="30" ry="16" fill="#ffbadb" opacity="0.6" />
  <ellipse cx="362" cy="310" rx="30" ry="16" fill="#ffbadb" opacity="0.6" />

  <!-- Whiskers -->
  <line x1="100" y1="280" x2="60" y2="270" stroke="#fff" stroke-width="8" stroke-linecap="round" opacity="0.8"/>
  <line x1="100" y1="300" x2="60" y2="310" stroke="#fff" stroke-width="8" stroke-linecap="round" opacity="0.8"/>
  
  <line x1="412" y1="280" x2="452" y2="270" stroke="#fff" stroke-width="8" stroke-linecap="round" opacity="0.8"/>
  <line x1="412" y1="300" x2="452" y2="310" stroke="#fff" stroke-width="8" stroke-linecap="round" opacity="0.8"/>

</svg>